<svg width="25" height="24" viewBox="0 0 25 24" fill="none" xmlns="http://www.w3.org/2000/svg">
<path d="M12.5875 0C6.12566 0 0.868549 5.25711 0.868549 11.7189C0.868549 13.9262 1.48083 16.0622 2.64307 17.9212L0.740205 23.0061C0.639163 23.2763 0.705101 23.5805 0.909024 23.7844C1.04958 23.9249 1.23769 24 1.42954 24C1.51608 24 1.60336 23.9848 1.68733 23.9533L6.939 21.9881C8.66274 22.9376 10.6078 23.4378 12.5875 23.4378C19.0493 23.4378 24.3064 18.1807 24.3064 11.7189C24.3065 5.25711 19.0494 0 12.5875 0ZM18.2345 15.399C17.9072 16.5627 16.6839 17.4071 15.3257 17.4071C15.1929 17.4071 15.0588 17.3988 14.929 17.3827C13.2783 17.1454 11.3463 16.0128 9.75742 14.3492C8.08416 12.7511 6.95158 10.8195 6.72764 9.18198C6.50098 7.52469 7.24256 6.28879 8.71116 5.8758C8.78659 5.8546 8.86637 5.84386 8.94827 5.84386C9.80856 5.84386 10.8333 7.05959 11.1893 7.93114C11.4211 8.49876 11.4035 8.93604 11.1385 9.19589C10.4735 9.84762 10.2257 10.2438 10.2543 10.6092C10.2864 11.0164 10.6654 11.4869 11.3092 12.1619C11.3914 12.2481 11.5013 12.3629 11.6248 12.4869C11.7401 12.6018 11.8507 12.7077 11.9484 12.8012C12.6672 13.4866 13.1365 13.8581 13.5582 13.8581C13.9089 13.858 14.2891 13.6095 14.9141 12.9717C15.0089 12.8751 15.1835 12.7601 15.4777 12.7601C16.2535 12.7601 17.3483 13.5172 17.8842 14.2244C18.2089 14.6528 18.33 15.059 18.2345 15.399Z" fill="black"/>
</svg>
