<svg width="81" height="80" viewBox="0 0 81 80" fill="none" xmlns="http://www.w3.org/2000/svg">
<g clip-path="url(#clip0_123_285)">
<path d="M36.5654 37.4114C37.0758 36.7269 37.492 35.9787 37.8032 35.1863C38.0776 34.4759 38.2174 33.7217 38.2158 32.9613C38.2413 31.9762 38.0091 31.0011 37.5415 30.1304C37.0947 29.3487 36.4124 28.7238 35.5893 28.3424C34.6122 27.9122 33.5493 27.7051 32.4799 27.7365C31.4986 27.7148 30.5272 27.9332 29.6522 28.3722C28.8246 28.8063 28.1297 29.4511 27.6397 30.2396C27.0952 31.1518 26.7522 32.1674 26.6334 33.2196H29.5818C29.6383 32.4496 29.9699 31.7244 30.5176 31.1734C30.7881 30.9274 31.1051 30.7368 31.4505 30.6123C31.7959 30.4879 32.1629 30.4321 32.5302 30.4482C33.261 30.4071 33.9803 30.6414 34.5428 31.1038C34.786 31.3491 34.9744 31.6421 35.0957 31.9638C35.217 32.2854 35.2687 32.6287 35.2472 32.9713C35.2383 33.5211 35.1221 34.064 34.9051 34.5705C34.6536 35.1721 34.3146 35.7342 33.8988 36.2393L26.8547 45.5565V48.0001H38.3667V45.3082H30.6786L36.5654 37.4114Z" fill="#048AFA"/>
<path d="M53.3386 36.069H50.5035V42.2455H44.7305L51.5204 27.7334H48.5209L41.5667 42.4162V44.8767H50.5035V48.0001H53.3386V44.8767H54.9V42.2455H53.3386V36.069Z" fill="#048AFA"/>
<path d="M40.7944 10.6667C33.9755 10.6664 27.374 13.0985 22.1468 17.5369C21.96 17.7201 21.8484 17.9682 21.8347 18.2314C21.821 18.4945 21.9062 18.7531 22.073 18.9553C22.2398 19.1574 22.4759 19.2879 22.7339 19.3207C22.9919 19.3535 23.2525 19.2861 23.4634 19.132C26.2634 16.7699 29.5064 15.0072 32.9968 13.9499C36.4872 12.8927 40.1526 12.5628 43.7722 12.9803C47.3917 13.3978 50.8904 14.554 54.0571 16.3791C57.2239 18.2042 59.9932 20.6605 62.198 23.5998C64.4028 26.5391 65.9975 29.9005 66.8859 33.4814C67.7743 37.0623 67.938 40.7885 67.3672 44.4352C66.7963 48.082 65.5027 51.5738 63.5643 54.7001C61.626 57.8264 59.0831 60.5224 56.0889 62.6256C55.9058 62.7503 55.7671 62.9314 55.6933 63.1422C55.6195 63.3529 55.6145 63.5821 55.679 63.796C55.7436 64.0098 55.8743 64.1969 56.0518 64.3297C56.2293 64.4625 56.4442 64.5339 56.6649 64.5334C56.8746 64.5329 57.0792 64.4674 57.2511 64.3458C62.3565 60.7869 66.2047 55.666 68.2332 49.7317C70.2617 43.7975 70.3641 37.3611 68.5255 31.3637C66.6868 25.3662 63.0035 20.1222 58.014 16.3984C53.0245 12.6745 46.9906 10.6661 40.7944 10.6667Z" fill="#048AFA"/>
<path d="M19.4803 20.0458C18.6796 20.9212 17.931 21.8436 17.2385 22.8081C17.1549 22.9248 17.095 23.0571 17.0622 23.1972C17.0294 23.3373 17.0245 23.4826 17.0477 23.6247C17.0708 23.7667 17.1216 23.9028 17.1971 24.025C17.2726 24.1472 17.3713 24.2531 17.4876 24.3367C17.6748 24.4685 17.8984 24.5372 18.1266 24.5332C18.2984 24.5324 18.4676 24.4904 18.6201 24.4107C18.7726 24.331 18.9041 24.2158 19.0038 24.0747C19.6411 23.181 20.3281 22.3243 21.0614 21.5089C21.2343 21.2918 21.3184 21.0164 21.2966 20.7388C21.2747 20.4613 21.1486 20.2027 20.9439 20.0159C20.7392 19.829 20.4714 19.728 20.1954 19.7336C19.9193 19.7392 19.6557 19.8509 19.4586 20.0458H19.4803Z" fill="#048AFA"/>
<path d="M40.4145 0.000413797C30.4504 0.0571758 20.8633 3.82488 13.5169 10.5711C6.17045 17.3174 1.58964 26.5601 0.66491 36.5027C0.551335 37.665 0.496357 38.8323 0.500187 40.0002C0.493759 44.7142 1.32341 49.3918 2.95043 53.8149C3.94202 56.5281 5.22987 59.1232 6.79053 61.5528L7.47001 62.5845C11.1371 67.9504 16.0533 72.3403 21.7934 75.3747C27.5335 78.409 33.9248 79.9966 40.4145 79.9999C41.6831 80.0021 42.951 79.9401 44.2134 79.8142C54.4565 78.8798 63.9439 74.0179 70.6964 66.2428C77.4488 58.4676 80.9447 48.3799 80.4546 38.0842C79.9646 27.7884 75.5265 18.0799 68.0662 10.9842C60.606 3.88846 50.6998 -0.0464474 40.4145 0.000413797ZM9.15841 61.4084C8.94222 61.0885 8.73631 60.779 8.52012 60.4385C7.04037 58.1364 5.82144 55.676 4.88592 53.103C3.34133 48.9082 2.55349 44.4715 2.55922 40.0002C2.55922 38.8859 2.55922 37.8026 2.70335 36.7812C2.70335 36.678 2.79601 36.4614 2.90925 36.1725L3.0328 35.8527C3.0328 35.8527 3.0328 35.7804 3.08427 35.7495C3.11769 35.6617 3.15548 35.5756 3.19752 35.4916C3.21718 35.4347 3.24127 35.3795 3.26958 35.3265C3.30306 35.2421 3.34086 35.1594 3.38283 35.0789L3.47549 34.9035L3.60933 34.6456L3.72257 34.4495L3.877 34.1813L4.00054 33.9749L4.17556 33.7067C4.17556 33.6345 4.26821 33.5623 4.31969 33.5003L4.5153 33.2218L4.68002 33.0154C4.74992 32.9214 4.82556 32.8318 4.90652 32.7472C4.95922 32.6738 5.01775 32.6048 5.08153 32.5408L5.32862 32.2726L5.52422 32.0766L5.81249 31.8083L6.0081 31.6329L6.36843 31.3647L6.54345 31.2202C6.73905 31.0964 6.92437 30.9623 7.13027 30.8488C9.12608 29.7677 11.4638 29.5086 13.6471 30.1266L16.9724 45.0762L13.1632 47.6865L13.0191 47.8C12.8733 47.9387 12.7713 48.1172 12.7255 48.3134C12.6798 48.5095 12.6924 48.7148 12.7617 48.9039V49.0174C12.7811 49.0911 12.8051 49.1635 12.8338 49.2341L12.9367 49.5436C13.014 49.7852 13.1033 50.0228 13.2044 50.2555C13.2959 50.5395 13.4024 50.8185 13.5236 51.0912C13.6162 51.3388 13.7192 51.5761 13.8427 51.8546L14.0383 52.2776C14.1413 52.5253 14.2648 52.7626 14.3575 52.9483C14.5943 53.4332 14.8002 53.8252 14.9855 54.1347C15.3362 54.7907 15.7211 55.4278 16.1385 56.0434C16.3238 56.3323 16.5195 56.6212 16.7151 56.8997L16.7768 56.9823C17.4371 57.9111 18.1558 58.7967 18.9285 59.6338C19.1344 59.8608 19.3403 60.0878 19.5565 60.3044L20.2154 60.9544C23.4115 64.0793 27.2883 66.4174 31.5401 67.7844C31.7589 67.8443 31.991 67.8337 32.2035 67.7541C32.416 67.6744 32.5981 67.5298 32.724 67.3408L35.3184 63.5543L50.2979 66.9074C50.4008 67.3717 50.4832 67.8153 50.5347 68.2487V68.6717C50.5498 68.9466 50.5498 69.2221 50.5347 69.497V69.9613C50.5347 69.9613 50.5347 70.4153 50.5347 70.6319C50.5347 70.8486 50.4729 70.9311 50.442 71.0859C50.4111 71.2406 50.3699 71.478 50.3185 71.6637C50.267 71.8494 50.2258 71.9525 50.1743 72.097C50.1228 72.2414 50.0611 72.4478 49.9993 72.6025C49.9375 72.7573 49.8655 72.8708 49.8037 73.0049C49.7419 73.139 49.6596 73.3144 49.5772 73.4588C49.4948 73.6033 49.4228 73.6961 49.3404 73.8199C49.2581 73.9438 49.1654 74.0882 49.0727 74.212C48.9918 74.3285 48.9023 74.4389 48.8051 74.5422C48.7124 74.666 48.6095 74.7898 48.5168 74.8929L48.2182 75.1921L47.9094 75.4913L47.5902 75.7493C47.4886 75.8442 47.3821 75.9337 47.2711 76.0175L46.9519 76.2445L46.6328 76.4611L46.3136 76.6675L45.9945 76.8429L45.6856 77.0183L45.3871 77.1627L45.0988 77.3072L44.8208 77.431L44.5635 77.5341L44.3164 77.627L44.0899 77.7095H43.9355C42.7689 77.8269 41.5972 77.8854 40.4248 77.8849C34.2698 77.8895 28.2064 76.3917 22.7587 73.5209C17.311 70.6501 12.643 66.4928 9.15841 61.4084ZM49.4434 76.8842L49.5257 76.8119L49.7625 76.585L49.9375 76.3992L50.164 76.1516L50.3288 75.9659L50.5655 75.677C50.6105 75.6161 50.6586 75.5575 50.7097 75.5017L50.9568 75.1509L51.07 74.9961L51.3994 74.4699C51.3941 74.4392 51.3941 74.4078 51.3994 74.3771L51.6465 73.9025L51.7392 73.6858C51.801 73.562 51.8627 73.4279 51.9142 73.3041L52.0069 73.0462C52.0069 72.9223 52.0995 72.7986 52.1407 72.6644C52.1729 72.573 52.2004 72.4801 52.2231 72.3859C52.2231 72.2517 52.2951 72.1279 52.326 71.9938C52.3569 71.8597 52.3775 71.7875 52.3981 71.6946C52.4187 71.6018 52.4496 71.416 52.4804 71.2819C52.5113 71.1478 52.4804 71.0653 52.4804 70.9621C52.4804 70.8589 52.4804 70.6732 52.4804 70.5288C52.4804 70.3843 52.4804 70.3121 52.4804 70.1986C52.4804 70.0851 52.4804 69.8994 52.4804 69.7447V69.3939C52.4804 69.2391 52.4804 69.074 52.4804 68.909C52.4804 68.7439 52.4804 68.6717 52.4804 68.5582L52.4187 68.0217C52.4187 67.9082 52.4187 67.7947 52.4187 67.6709C52.4187 67.5471 52.3466 67.2685 52.3054 67.0622C52.2642 66.8558 52.3054 66.8558 52.3054 66.7527C52.2334 66.4432 52.1613 66.1233 52.0686 65.7932C52.0196 65.618 51.9252 65.4589 51.795 65.3321C51.6648 65.2052 51.5035 65.1152 51.3274 65.071L35.1434 61.4084C35.0683 61.3976 34.992 61.3976 34.9169 61.4084H34.7728H34.5977H34.5051C34.445 61.4291 34.3892 61.4605 34.3404 61.5012C34.3096 61.5165 34.2838 61.54 34.2656 61.5692C34.2474 61.5983 34.2377 61.6319 34.2374 61.6663C34.1597 61.722 34.0933 61.792 34.0418 61.8726L31.4989 65.5971C27.8244 64.3105 24.4682 62.2488 21.6567 59.5513L21.0184 58.9013L20.4213 58.2719C19.6883 57.4722 19.0009 56.6318 18.3623 55.7545C18.1873 55.4966 18.002 55.2387 17.8166 54.9498C17.4048 54.3308 17.0651 53.753 16.7357 53.1649C16.5297 52.8245 16.3547 52.4634 16.1591 52.0713C16.0665 51.8856 15.9738 51.6999 15.8709 51.4626L15.7061 50.988C15.6135 50.7817 15.5208 50.5753 15.4179 50.3071C15.3149 50.0388 15.2223 49.8428 15.1193 49.5333C15.0164 49.2238 14.9752 49.1618 14.9031 48.9555L18.6608 46.3865C18.8224 46.2732 18.9481 46.1156 19.023 45.9327C19.0978 45.7498 19.1186 45.5492 19.0829 45.3548L15.5002 29.064C15.4602 28.8805 15.371 28.7115 15.2421 28.5752C15.1133 28.4388 14.9498 28.3403 14.7693 28.2902C13.3492 27.816 11.8471 27.6391 10.356 27.7704C8.86486 27.9017 7.41655 28.3385 6.10075 29.0536C5.85367 29.1981 5.61688 29.3528 5.38009 29.5076L5.17419 29.6727L4.7212 30.0131L4.49471 30.2195C4.37117 30.333 4.23733 30.4361 4.12408 30.5496L3.89759 30.7766L3.62992 31.0552C5.81647 22.0387 11.2247 14.138 18.8314 8.84762C26.4381 3.55727 35.7159 1.24419 44.9095 2.34597C54.1031 3.44775 62.5749 7.88798 68.7223 14.8267C74.8698 21.7653 78.2664 30.7213 78.2698 40.0002C78.3107 48.4993 75.4861 56.7631 70.2539 63.4521C65.0217 70.1412 57.6887 74.8633 49.4434 76.8532V76.8842Z" fill="#048AFA"/>
</g>
<defs>
<clipPath id="clip0_123_285">
<rect width="80" height="80" fill="white" transform="translate(0.5)"/>
</clipPath>
</defs>
</svg>
