<svg width="81" height="80" viewBox="0 0 81 80" fill="none" xmlns="http://www.w3.org/2000/svg">
<path d="M41.2102 32.4208C39.5556 30.1401 38.7867 27.3295 39.0446 24.5074L39.5235 19.2684C39.5706 18.7537 39.1987 18.298 38.6933 18.2501C38.1871 18.2028 37.7396 18.5806 37.6925 19.0951L37.2136 24.334C36.9138 27.6146 37.8077 30.8814 39.7307 33.5323C39.9109 33.7811 40.1894 33.9124 40.4712 33.9124C41.2163 33.9122 41.6612 33.0421 41.2102 32.4208Z" fill="#048AFA"/>
<path d="M51.1865 36.3149C56.9958 36.3149 61.3203 30.7222 59.8552 24.9342L62.2706 22.4764C63.3435 21.3847 63.3435 19.6183 62.2706 18.5268C61.1983 17.4351 59.462 17.4351 58.3893 18.5268L56.8194 20.1242C55.2297 18.81 53.2616 18.0952 51.1867 18.0952C46.2501 18.0952 42.2339 22.1818 42.2339 27.205C42.2337 32.2282 46.2501 36.3149 51.1865 36.3149ZM59.6897 19.85C59.8608 19.6759 60.0881 19.5801 60.3298 19.5801C61.1389 19.5801 61.5357 20.5775 60.9703 21.1532L51.9413 30.3406L48.7199 27.0627C48.1478 26.4805 48.5604 25.4896 49.3601 25.4896C49.6018 25.4896 49.8293 25.5853 50.0004 25.7594L51.2911 27.0725C51.6499 27.4378 52.2325 27.4378 52.5913 27.0725L59.6897 19.85ZM51.1865 19.9665C52.7696 19.9665 54.2736 20.4916 55.5092 21.4577L51.9415 25.088L51.301 24.4363C50.2287 23.3449 48.4926 23.3446 47.4193 24.4363C46.3496 25.5251 46.3496 27.297 47.4197 28.3857L51.2915 32.3254C51.6503 32.6908 52.2328 32.6907 52.5916 32.3254L58.27 26.5474C58.651 30.7981 55.3491 34.4438 51.1865 34.4438C47.2643 34.4438 44.0729 31.1966 44.0729 27.2052C44.0729 23.2136 47.2643 19.9665 51.1865 19.9665Z" fill="#048AFA"/>
<path d="M18.2932 66.9009H13.9712C12.6275 66.9009 11.5345 68.0131 11.5345 69.3806V70.0355C11.5345 71.4026 12.6277 72.515 13.9712 72.515H18.2932C19.6367 72.515 20.7299 71.4026 20.7299 70.0355V69.3806C20.7299 68.0131 19.6367 66.9009 18.2932 66.9009ZM18.8909 70.0355C18.8909 70.3708 18.6226 70.6435 18.2932 70.6435H13.9712C13.6416 70.6435 13.3735 70.3706 13.3735 70.0355V69.3806C13.3735 69.0451 13.6418 68.7724 13.9712 68.7724H18.2932C18.6226 68.7724 18.8909 69.0453 18.8909 69.3806V70.0355Z" fill="#048AFA"/>
<path d="M44.04 66.9009H25.0057C23.662 66.9009 22.569 68.0131 22.569 69.3806V70.0355C22.569 71.4026 23.6622 72.515 25.0057 72.515H44.04C45.3837 72.515 46.477 71.4026 46.477 70.0355V69.3806C46.477 68.0131 45.3837 66.9009 44.04 66.9009ZM44.6379 70.0355C44.6379 70.3708 44.3697 70.6435 44.04 70.6435H25.0057C24.676 70.6435 24.408 70.3706 24.408 70.0355V69.3806C24.408 69.0451 24.6762 68.7724 25.0057 68.7724H44.04C44.3699 68.7724 44.6379 69.0453 44.6379 69.3806V70.0355Z" fill="#048AFA"/>
<path d="M12.454 62.2224H14.2931C14.8007 62.2224 15.2126 61.8035 15.2126 61.2867C15.2126 60.7698 14.8007 60.3511 14.2931 60.3511H12.454C11.9462 60.3511 11.5345 60.7698 11.5345 61.2867C11.5345 61.8035 11.9462 62.2224 12.454 62.2224Z" fill="#048AFA"/>
<path d="M17.0516 62.2224H18.8907C19.3985 62.2224 19.8102 61.8035 19.8102 61.2867C19.8102 60.7698 19.3983 60.3511 18.8907 60.3511H17.0516C16.5439 60.3511 16.1321 60.7698 16.1321 61.2867C16.1323 61.8035 16.5439 62.2224 17.0516 62.2224Z" fill="#048AFA"/>
<path d="M24.4079 61.2867C24.4079 60.7698 23.9961 60.3511 23.4884 60.3511H21.6494C21.1415 60.3511 20.7299 60.7698 20.7299 61.2867C20.7299 61.8035 21.1417 62.2224 21.6494 62.2224H23.4884C23.9963 62.2224 24.4079 61.8035 24.4079 61.2867Z" fill="#048AFA"/>
<path d="M26.2471 62.2224H28.0861C28.5938 62.2224 29.0057 61.8035 29.0057 61.2867C29.0057 60.7698 28.5938 60.3511 28.0861 60.3511H26.2471C25.7392 60.3511 25.3276 60.7698 25.3276 61.2867C25.3276 61.8035 25.7394 62.2224 26.2471 62.2224Z" fill="#048AFA"/>
<path d="M30.8449 62.2224H32.6839C33.1918 62.2224 33.6034 61.8035 33.6034 61.2867C33.6034 60.7698 33.1916 60.3511 32.6839 60.3511H30.8449C30.3372 60.3511 29.9254 60.7698 29.9254 61.2867C29.9254 61.8035 30.337 62.2224 30.8449 62.2224Z" fill="#048AFA"/>
<path d="M78.6607 50.0585C79.4225 50.0585 80.0399 49.4302 80.0399 48.6551C80.0399 47.88 79.4225 47.2517 78.6607 47.2517C77.899 47.2517 77.2816 47.88 77.2816 48.6551C77.2816 49.4302 77.899 50.0585 78.6607 50.0585Z" fill="#048AFA"/>
<path d="M79.1206 9.82474C79.8825 9.82474 80.5 9.19633 80.5 8.42116C80.5 7.64598 79.8825 7.01758 79.1206 7.01758C78.3588 7.01758 77.7413 7.64598 77.7413 8.42116C77.7413 9.19633 78.3588 9.82474 79.1206 9.82474Z" fill="#048AFA"/>
<path d="M74.5228 80C75.2846 80 75.9022 79.3716 75.9022 78.5965C75.9022 77.8213 75.2846 77.1929 74.5228 77.1929C73.761 77.1929 73.1434 77.8213 73.1434 78.5965C73.1434 79.3716 73.761 80 74.5228 80Z" fill="#048AFA"/>
<path d="M22.1092 29.4737C22.871 29.4737 23.4886 28.8453 23.4886 28.0701C23.4886 27.2949 22.871 26.6665 22.1092 26.6665C21.3474 26.6665 20.7299 27.2949 20.7299 28.0701C20.7299 28.8453 21.3474 29.4737 22.1092 29.4737Z" fill="#048AFA"/>
<path d="M1.87938 36.959C2.64119 36.959 3.25876 36.3306 3.25876 35.5554C3.25876 34.7803 2.64119 34.1519 1.87938 34.1519C1.11757 34.1519 0.5 34.7803 0.5 35.5554C0.5 36.3306 1.11757 36.959 1.87938 36.959Z" fill="#048AFA"/>
<path d="M37.7413 2.80716C38.5031 2.80716 39.1207 2.17875 39.1207 1.40358C39.1207 0.628404 38.5031 0 37.7413 0C36.9795 0 36.3619 0.628404 36.3619 1.40358C36.3619 2.17875 36.9795 2.80716 37.7413 2.80716Z" fill="#048AFA"/>
<path d="M3.71843 10.2925C4.48024 10.2925 5.09781 9.66411 5.09781 8.88893C5.09781 8.11376 4.48024 7.48535 3.71843 7.48535C2.95662 7.48535 2.33905 8.11376 2.33905 8.88893C2.33905 9.66411 2.95662 10.2925 3.71843 10.2925Z" fill="#048AFA"/>
<path d="M73.1437 42.1368C73.1437 38.2537 70.0424 35.0946 66.2279 35.0883C68.343 31.7435 69.3625 27.7196 68.994 23.6611L68.295 13.7961C68.2609 13.3136 67.871 12.9372 67.3961 12.9277C58.3775 12.7464 52.0923 5.54038 52.0305 5.46815C51.6579 5.03197 50.9855 5.04071 50.6244 5.49039C50.5637 5.56565 44.4545 13.0372 35.4537 13.2181C34.9858 13.2275 34.5997 13.5928 34.5562 14.0669L33.6798 23.6508C33.3087 27.7122 34.3276 31.7395 36.4459 35.0879H12.0248C8.20532 35.0879 5.09784 38.2499 5.09784 42.1366V72.0156C5.09784 75.9023 8.20532 79.0643 12.0248 79.0643H66.2164C70.0358 79.0643 73.1437 75.9021 73.1437 72.0156C73.1437 67.1137 73.1437 45.8095 73.1437 42.1368ZM66.2164 36.9592C69.022 36.9592 71.3045 39.2818 71.3045 42.1366V45.3801H54.2112L61.7545 39.9097C62.9189 39.0504 63.9608 38.0563 64.8699 36.9591L66.2164 36.9592ZM71.3045 52.8658H6.93689V47.2518H71.3045V52.8658ZM35.511 23.8243L36.3127 15.0547C44.0217 14.5622 49.4935 9.46127 51.3579 7.46072C53.2692 9.38886 58.835 14.2791 66.5197 14.7639C67.3533 26.5302 67.1107 23.2198 67.1617 23.8243C67.6789 29.4786 65.193 35.0615 60.6811 38.3908L51.3368 45.1673L41.9985 38.3953C37.4801 35.0617 34.994 29.4786 35.511 23.8243ZM12.0248 36.9592H37.8041C38.7147 38.0578 39.7579 39.0537 40.9247 39.9145L48.4619 45.3805H6.93689V42.137C6.93689 39.2819 9.21935 36.9592 12.0248 36.9592ZM66.2164 77.1932H12.0248C9.21935 77.1932 6.93689 74.8707 6.93689 72.0158V54.7373H71.3045V72.0158C71.3045 74.8709 69.022 77.1932 66.2164 77.1932Z" fill="#048AFA"/>
<path d="M17.0516 20.1172C20.0939 20.1172 22.569 17.5987 22.569 14.503C22.569 11.4074 20.0939 8.88892 17.0516 8.88892C14.0093 8.88892 11.5343 11.4074 11.5343 14.503C11.5343 17.5987 14.0095 20.1172 17.0516 20.1172ZM17.0516 10.7606C19.0797 10.7606 20.7297 12.4396 20.7297 14.5032C20.7297 16.5669 19.0797 18.2458 17.0516 18.2458C15.0236 18.2458 13.3735 16.5669 13.3735 14.5032C13.3735 12.4396 15.0236 10.7606 17.0516 10.7606Z" fill="#048AFA"/>
<path d="M79.5801 29.4738C79.5801 27.4102 77.93 25.7312 75.902 25.7312C73.8739 25.7312 72.2239 27.4102 72.2239 29.4738C72.2239 31.5375 73.8739 33.2164 75.902 33.2164C77.93 33.2164 79.5801 31.5377 79.5801 29.4738ZM75.902 31.3451C74.8879 31.3451 74.0629 30.5056 74.0629 29.4738C74.0629 28.442 74.8879 27.6025 75.902 27.6025C76.9162 27.6025 77.7412 28.442 77.7412 29.4738C77.7412 30.5058 76.9162 31.3451 75.902 31.3451Z" fill="#048AFA"/>
</svg>
