<svg width="75" height="76" viewBox="0 0 75 76" fill="none" xmlns="http://www.w3.org/2000/svg">
<path d="M74.8406 60.125C74.4516 58.675 73.4078 57.5031 71.8984 56.825C70.4531 56.175 68.75 56.0594 67.1047 56.5L66.8656 56.5641C67.3219 55.2734 67.2297 53.8047 66.4984 52.5391C65.8562 51.425 64.8141 50.6281 63.5641 50.2937C62.4016 49.9812 61.1937 50.1125 60.1344 50.6516C60.0281 50.0766 59.8172 49.5219 59.5062 49.0156C58.8344 47.9188 57.7719 47.15 56.5141 46.8484C55.2578 46.5469 53.9609 46.7516 52.8641 47.4234L45.0047 52.2438L33.4906 45.5969C31.7359 44.5844 29.8531 44.3359 27.8969 44.8609L13.5703 48.7L13.1172 47.0078C12.875 46.1031 12.2922 45.3453 11.4766 44.8734C10.6609 44.4016 9.71249 44.2766 8.80781 44.5187L2.60781 46.1797C1.70312 46.4219 0.945306 47.0047 0.473431 47.8203C0.00155625 48.6359 -0.123444 49.5844 0.118744 50.4891L6.12187 72.8938C6.54374 74.4625 7.96874 75.5 9.52343 75.5C9.82343 75.5 10.1297 75.4609 10.4328 75.3797L16.6328 73.7188C17.5375 73.4766 18.2953 72.8938 18.7672 72.0781C19.2391 71.2625 19.3641 70.3141 19.1219 69.4094L18.6687 67.7172L24.3437 66.1969C25.8484 65.7937 27.2625 65.8812 28.5422 66.4578L42.0297 72.5297C43.1766 73.0453 44.3844 73.3047 45.6406 73.3047C46.4984 73.3047 47.3797 73.1844 48.2797 72.9438L69.9547 67.1359C71.6016 66.6937 73.0187 65.7438 73.9453 64.4578C74.9094 63.1109 75.2281 61.575 74.8406 60.125ZM63.0906 52.0594C63.8672 52.2672 64.5156 52.7625 64.9141 53.4531C65.6547 54.7359 65.3406 56.3484 64.2016 57.2734L51.9219 60.55C52.1172 59.5859 52.0781 58.5641 51.7328 57.5969L60.8141 52.3531C61.5062 51.9562 62.3141 51.8516 63.0906 52.0594ZM53.8219 48.9813C54.5016 48.5641 55.3062 48.4375 56.0891 48.6266C56.8719 48.8141 57.5312 49.2922 57.9484 49.9719C58.2594 50.4781 58.4 51.0625 58.375 51.6531L50.8187 56.0156C50.3891 55.5047 49.8375 55.0328 49.1406 54.6312L46.8062 53.2844L53.8219 48.9813ZM17.1828 71.1625C16.9562 71.5547 16.5922 71.8359 16.1594 71.9516L9.95937 73.6125C9.05781 73.8531 8.13124 73.3172 7.88906 72.4172L1.88749 50.0141C1.77187 49.5813 1.83124 49.1266 2.05937 48.7328C2.28593 48.3406 2.64999 48.0594 3.08281 47.9438L9.28281 46.2828C9.71562 46.1672 10.1703 46.2266 10.5641 46.4547C10.9562 46.6812 11.2359 47.0453 11.3531 47.4781L17.3562 69.8828C17.4703 70.3156 17.4094 70.7703 17.1828 71.1625ZM72.4594 63.3844C71.7797 64.3297 70.7203 65.0328 69.4797 65.3656L47.8047 71.1734C46.0062 71.6562 44.3141 71.55 42.7797 70.8594L29.2937 64.7875C27.6187 64.0328 25.7953 63.9125 23.8703 64.4281L18.1937 65.9484L14.0437 50.4625L28.3703 46.6234C29.8625 46.2219 31.2391 46.4031 32.5766 47.1766L48.2266 56.2125C50.4859 57.5172 50.5797 59.7812 49.6703 61.4453C49.6656 61.4531 49.6656 61.4609 49.6609 61.4688C49.1234 62.4281 48.2687 63.1297 47.3125 63.3922C46.3625 63.6547 45.3687 63.4922 44.3594 62.9094L32.8516 56.2656C32.4125 56.0125 31.8531 56.1625 31.6016 56.6C31.3484 57.0375 31.4984 57.5969 31.9359 57.85L43.4437 64.4938C44.4187 65.0563 45.4297 65.3422 46.4234 65.3422C46.8859 65.3422 47.3453 65.2812 47.7969 65.1562C49.1109 64.7937 50.2797 63.8953 51.0625 62.6734L67.575 58.2672C68.8156 57.9344 70.0844 58.0141 71.1453 58.4922C72.1437 58.9422 72.8266 59.6891 73.0703 60.5984C73.3172 61.5063 73.0984 62.4969 72.4594 63.3844ZM50.5016 44.5906C62.6578 44.5906 72.5469 34.7016 72.5469 22.5453C72.5469 10.3891 62.6578 0.5 50.5016 0.5C38.3453 0.5 28.4562 10.3891 28.4562 22.5453C28.4562 34.7016 38.3453 44.5906 50.5016 44.5906ZM50.5016 2.32969C61.6484 2.32969 70.7172 11.3984 70.7172 22.5453C70.7172 33.6922 61.6484 42.7609 50.5016 42.7609C39.3547 42.7609 30.2859 33.6922 30.2859 22.5453C30.2859 11.3984 39.3547 2.32969 50.5016 2.32969ZM34.7609 13.5578C33.2406 16.2094 32.3672 19.2766 32.3672 22.5453C32.3672 25.8141 33.2406 28.8813 34.7609 31.5312C34.7734 31.5578 34.7828 31.5859 34.7969 31.6125C34.8078 31.6312 34.825 31.6453 34.8359 31.6641C36.4141 34.3641 38.6672 36.6203 41.3641 38.2C41.3875 38.2172 41.4078 38.2359 41.4328 38.25C41.4531 38.2609 41.4734 38.2656 41.4937 38.275C44.15 39.8016 47.2234 40.6797 50.4984 40.6797C53.775 40.6797 56.8484 39.8016 59.5031 38.275C59.5234 38.2656 59.5453 38.2609 59.5641 38.25C59.5891 38.2359 59.6094 38.2172 59.6328 38.2C62.3297 36.6203 64.5828 34.3641 66.1609 31.6641C66.1734 31.6453 66.1906 31.6312 66.2016 31.6125C66.2172 31.5859 66.2266 31.5578 66.2391 31.5312C67.7578 28.8813 68.6312 25.8141 68.6312 22.5469C68.6312 19.2781 67.7578 16.2125 66.2375 13.5609C66.225 13.5344 66.2156 13.5063 66.2016 13.4797C66.1875 13.4547 66.1672 13.4328 66.1516 13.4094C64.575 10.7188 62.325 8.46875 59.6344 6.89219C59.6109 6.875 59.5906 6.85625 59.5656 6.84219C59.5391 6.82656 59.5125 6.81875 59.4859 6.80625C56.8344 5.28594 53.7672 4.4125 50.4984 4.4125C47.2297 4.4125 44.1625 5.28594 41.5109 6.80625C41.4844 6.81875 41.4578 6.82656 41.4312 6.84219C41.4062 6.85625 41.3859 6.875 41.3625 6.89219C38.6719 8.46875 36.4219 10.7188 34.8453 13.4094C34.8281 13.4328 34.8094 13.4531 34.7953 13.4797C34.7828 13.5047 34.7734 13.5312 34.7609 13.5578ZM41.5734 8.9125L42.3516 10.2594C42.5203 10.5531 42.8281 10.7172 43.1453 10.7172C43.3 10.7172 43.4578 10.6781 43.6016 10.5938C44.0391 10.3406 44.1891 9.78125 43.9359 9.34375L43.1578 7.99531C45.1094 7.00625 47.2844 6.39531 49.5875 6.26719V7.82969C49.5875 8.33437 49.9969 8.74375 50.5016 8.74375C51.0062 8.74375 51.4156 8.33437 51.4156 7.82969V6.26719C53.7187 6.39531 55.8937 7.00469 57.8453 7.99531L57.0672 9.34375C56.8141 9.78125 56.9641 10.3406 57.4016 10.5938C57.5453 10.6766 57.7031 10.7172 57.8578 10.7172C58.1734 10.7172 58.4812 10.5531 58.6516 10.2594L59.4297 8.9125C61.3016 10.1422 62.9062 11.7469 64.1359 13.6187L62.7891 14.3953C62.3516 14.6484 62.2016 15.2078 62.4547 15.6453C62.6234 15.9391 62.9312 16.1031 63.2484 16.1031C63.4031 16.1031 63.5609 16.0641 63.7047 15.9797L65.0531 15.2016C66.0422 17.1531 66.6531 19.3281 66.7812 21.6313H65.2187C64.7141 21.6313 64.3047 22.0406 64.3047 22.5453C64.3047 23.05 64.7141 23.4594 65.2187 23.4594H66.7812C66.6531 25.7625 66.0422 27.9375 65.0531 29.8891L63.7047 29.1109C63.2672 28.8578 62.7078 29.0078 62.4547 29.4453C62.2016 29.8828 62.3516 30.4422 62.7891 30.6953L64.1359 31.4719C62.9062 33.3438 61.3016 34.9484 59.4297 36.1781L58.6531 34.8312C58.4 34.3937 57.8422 34.2438 57.4031 34.4969C56.9641 34.75 56.8156 35.3094 57.0687 35.7469L57.8469 37.0953C55.8953 38.0844 53.7203 38.6953 51.4172 38.8234V37.2609C51.4172 36.7563 51.0078 36.3469 50.5031 36.3469C49.9984 36.3469 49.5891 36.7563 49.5891 37.2609V38.8234C47.2859 38.6953 45.1109 38.0844 43.1594 37.0953L43.9375 35.7469C44.1906 35.3094 44.0406 34.75 43.6031 34.4969C43.1656 34.2438 42.6062 34.3937 42.3531 34.8312L41.5766 36.1781C39.7047 34.9484 38.1 33.3438 36.8703 31.4719L38.2172 30.6938C38.6547 30.4406 38.8047 29.8813 38.5516 29.4438C38.2984 29.0063 37.7406 28.8563 37.3016 29.1094L35.9531 29.8875C34.9641 27.9359 34.3531 25.7609 34.225 23.4578H35.7875C36.2922 23.4578 36.7016 23.0484 36.7016 22.5438C36.7016 22.0391 36.2922 21.6297 35.7875 21.6297H34.225C34.3531 19.3266 34.9625 17.1516 35.9531 15.2L37.3016 15.9781C37.4453 16.0609 37.6031 16.1016 37.7578 16.1016C38.0734 16.1016 38.3812 15.9375 38.5516 15.6437C38.8047 15.2063 38.6547 14.6469 38.2172 14.3937L36.8703 13.6156C38.0984 11.7453 39.7016 10.1422 41.5734 8.9125ZM53.7766 25.9578C53.7766 24.2672 52.7797 23.9094 50.3312 23.4437C48.25 23.0484 45.3984 22.5078 45.3984 19.1328C45.3984 17.0125 47.2094 15.2469 49.5875 14.8797V13.4313C49.5875 12.9266 49.9969 12.5172 50.5016 12.5172C51.0062 12.5172 51.4156 12.9266 51.4156 13.4313V14.8797C53.7937 15.2469 55.6047 17.0125 55.6047 19.1328C55.6047 19.6375 55.1953 20.0469 54.6906 20.0469C54.1859 20.0469 53.7766 19.6375 53.7766 19.1328C53.7766 17.7563 52.3078 16.6359 50.5016 16.6359C48.6953 16.6359 47.2266 17.7563 47.2266 19.1328C47.2266 20.8234 48.2234 21.1812 50.6719 21.6453C52.7531 22.0406 55.6047 22.5828 55.6047 25.9562C55.6047 28.0766 53.7937 29.8422 51.4156 30.2094V31.6562C51.4156 32.1609 51.0062 32.5703 50.5016 32.5703C49.9969 32.5703 49.5875 32.1609 49.5875 31.6562V30.2094C47.2094 29.8422 45.3984 28.0766 45.3984 25.9562C45.3984 25.4516 45.8078 25.0422 46.3125 25.0422C46.8172 25.0422 47.2266 25.4516 47.2266 25.9562C47.2266 27.3328 48.6953 28.4531 50.5016 28.4531C52.3062 28.4547 53.7766 27.3344 53.7766 25.9578ZM28.5828 32.4344C28.5828 32.9391 28.1734 33.3484 27.6687 33.3484H18.4062C17.9016 33.3484 17.4922 32.9391 17.4922 32.4344C17.4922 31.9297 17.9016 31.5203 18.4062 31.5203H27.6672C28.1734 31.5187 28.5828 31.9281 28.5828 32.4344ZM14.4625 22.5453C14.4625 22.0406 14.8719 21.6313 15.3766 21.6313H26.1844C26.6891 21.6313 27.0984 22.0406 27.0984 22.5453C27.0984 23.05 26.6891 23.4594 26.1844 23.4594H15.3766C14.8719 23.4594 14.4625 23.05 14.4625 22.5453ZM17.4922 12.6562C17.4922 12.1516 17.9016 11.7422 18.4062 11.7422H27.6672C28.1719 11.7422 28.5812 12.1516 28.5812 12.6562C28.5812 13.1609 28.1719 13.5703 27.6672 13.5703H18.4062C17.9016 13.5719 17.4922 13.1625 17.4922 12.6562Z" fill="#048AFA"/>
</svg>
