<svg width="81" height="80" viewBox="0 0 81 80" fill="none" xmlns="http://www.w3.org/2000/svg">
<path d="M10.1557 24.9071H12.1846V26.6331C12.1846 27.1496 12.6881 27.5779 13.2953 27.5779C13.9025 27.5779 14.406 27.1496 14.406 26.6331V24.9071H16.4349C17.0421 24.9071 17.5456 24.4787 17.5456 23.9622C17.5456 23.4456 17.0421 23.0173 16.4349 23.0173H14.406V21.2913C14.406 20.7748 13.9025 20.3464 13.2953 20.3464C12.6881 20.3464 12.1846 20.7748 12.1846 21.2913V23.0173H10.1557C9.54856 23.0173 9.04504 23.4456 9.04504 23.9622C9.04504 24.4787 9.54856 24.9071 10.1557 24.9071Z" fill="#048AFA"/>
<path d="M66.0906 16.7937H68.1194V18.5197C68.1194 19.0362 68.623 19.4646 69.2301 19.4646C69.8373 19.4646 70.3408 19.0362 70.3408 18.5197V16.7937H72.3697C72.9769 16.7937 73.4804 16.3653 73.4804 15.8488C73.4804 15.3323 72.9769 14.9039 72.3697 14.9039H70.3408V13.1653C70.3408 12.6488 69.8373 12.2205 69.2301 12.2205C68.623 12.2205 68.1194 12.6488 68.1194 13.1653V14.8913H66.0906C65.4834 14.8913 64.9799 15.3197 64.9799 15.8362C64.9799 16.3527 65.4686 16.7937 66.0906 16.7937Z" fill="#048AFA"/>
<path d="M23.2619 13.8709H39.3004V17.8772C39.3004 18.3937 39.8039 18.8221 40.4111 18.8221C41.0183 18.8221 41.5218 18.3937 41.5218 17.8772V13.8709H57.5603C57.8861 13.8709 58.2119 13.7449 58.4193 13.5307C58.6266 13.3165 58.7155 13.0268 58.6562 12.7496C56.9383 5.35433 49.2671 0 40.4111 0C31.5551 0 23.8839 5.35433 22.1808 12.737C22.1216 13.0142 22.1957 13.3039 22.4178 13.5181C22.6103 13.7449 22.9361 13.8709 23.2619 13.8709ZM40.4111 1.88976C47.7566 1.88976 54.169 6.07244 56.1535 11.9811H24.6688C26.6533 6.07244 33.0805 1.88976 40.4111 1.88976Z" fill="#048AFA"/>
<path d="M28.2526 23.2945C27.8232 23.6598 27.8232 24.2645 28.2526 24.6299C31.5996 27.4771 36.0127 28.9008 40.4111 28.9008C44.8095 28.9008 49.2079 27.4771 52.5696 24.6299C52.999 24.2645 52.999 23.6598 52.5696 23.2945C52.1401 22.9291 51.4293 22.9291 50.9998 23.2945C45.1649 28.2582 35.6721 28.2582 29.8372 23.2945C29.393 22.9165 28.6969 22.9165 28.2526 23.2945Z" fill="#048AFA"/>
<path d="M48.7635 21.3922C49.193 21.0268 49.193 20.4221 48.7635 20.0567C48.334 19.6914 47.6232 19.6914 47.1937 20.0567C45.387 21.5937 42.973 22.4504 40.411 22.4504C37.849 22.4504 35.4499 21.6063 33.6283 20.0567C33.1989 19.6914 32.488 19.6914 32.0586 20.0567C31.6291 20.4221 31.6291 21.0268 32.0586 21.3922C34.2948 23.2945 37.2566 24.3276 40.411 24.3276C43.5654 24.3276 46.5273 23.2819 48.7635 21.3922Z" fill="#048AFA"/>
<path d="M74.1025 32.1008H6.73485C6.12766 32.1008 5.62415 32.5292 5.62415 33.0457V67.8174C5.62415 68.3339 6.12766 68.7623 6.73485 68.7623H36.2498V74.3056H25.128C24.5209 74.3056 24.0173 74.7339 24.0173 75.2505V79.0552C24.0173 79.5717 24.5209 80.0001 25.128 80.0001H55.7241C56.3313 80.0001 56.8348 79.5717 56.8348 79.0552V75.2505C56.8348 74.7339 56.3313 74.3056 55.7241 74.3056H44.6023V68.7623H74.1173C74.7245 68.7623 75.228 68.3339 75.228 67.8174V33.0457C75.2132 32.5292 74.7097 32.1008 74.1025 32.1008ZM54.5986 78.1103H26.2239V76.1953H37.3457H43.462H54.5838V78.1103H54.5986ZM42.3661 74.3056H38.4712V68.7623H42.3661V74.3056ZM72.9918 66.8725H43.4768H37.3605H7.84555V33.9906H72.9918V66.8725Z" fill="#048AFA"/>
<path d="M11.607 64.5669H69.2302C69.8373 64.5669 70.3409 64.1385 70.3409 63.622V37.2535C70.3409 36.7369 69.8373 36.3086 69.2302 36.3086H11.607C10.9999 36.3086 10.4963 36.7369 10.4963 37.2535V63.622C10.4963 64.1385 10.985 64.5669 11.607 64.5669ZM12.7177 38.1984H68.1195V62.6771H12.7177V38.1984Z" fill="#048AFA"/>
<path d="M38.6785 44.7244H29.9558C29.3486 44.7244 28.8451 45.1527 28.8451 45.6692C28.8451 46.1858 29.3486 46.6141 29.9558 46.6141H33.2138V55.1937C33.2138 55.7102 33.7174 56.1385 34.3245 56.1385C34.9317 56.1385 35.4353 55.7102 35.4353 55.1937V46.6141H38.6785C39.2857 46.6141 39.7892 46.1858 39.7892 45.6692C39.7892 45.1527 39.3005 44.7244 38.6785 44.7244Z" fill="#048AFA"/>
<path d="M51.2516 44.7875C50.6888 44.5985 50.0372 44.8505 49.8151 45.3418L46.6015 52.5985L43.1805 45.3292C42.9584 44.8505 42.3068 44.6111 41.7292 44.8001C41.1664 44.9891 40.8851 45.5434 41.1072 46.0347L45.5944 55.5592C45.7573 55.9119 46.172 56.1513 46.6311 56.1513H46.6459C47.105 56.1513 47.5048 55.8993 47.6677 55.534L51.9032 46.0095C52.1254 45.5182 51.8292 44.9765 51.2516 44.7875Z" fill="#048AFA"/>
<path d="M79.3894 41.5371C78.7822 41.5371 78.2787 41.9655 78.2787 42.482V44.8001C78.2787 45.3166 78.7822 45.745 79.3894 45.745C79.9966 45.745 80.5001 45.3166 80.5001 44.8001V42.482C80.5001 41.9655 80.0114 41.5371 79.3894 41.5371Z" fill="#048AFA"/>
<path d="M79.3893 27.4519H65.7499C65.1427 27.4519 64.6392 27.8803 64.6392 28.3968C64.6392 28.9133 65.1427 29.3417 65.7499 29.3417H78.2786V38.022C78.2786 38.5385 78.7821 38.9669 79.3893 38.9669C79.9964 38.9669 80.5 38.5385 80.5 38.022V28.3968C80.5 27.8803 80.0112 27.4519 79.3893 27.4519Z" fill="#048AFA"/>
<path d="M1.6107 59.8677C1.00352 59.8677 0.5 60.296 0.5 60.8126V63.2441C0.5 63.7606 1.00352 64.1889 1.6107 64.1889C2.21788 64.1889 2.7214 63.7606 2.7214 63.2441V60.8126C2.7214 60.296 2.21788 59.8677 1.6107 59.8677Z" fill="#048AFA"/>
<path d="M1.6107 48.3528C1.00352 48.3528 0.5 48.7811 0.5 49.2977V57.1213C0.5 57.6378 1.00352 58.0662 1.6107 58.0662C2.21788 58.0662 2.7214 57.6378 2.7214 57.1213V49.2977C2.7214 48.7685 2.21788 48.3528 1.6107 48.3528Z" fill="#048AFA"/>
</svg>
