<svg width="76" height="76" viewBox="0 0 76 76" fill="none" xmlns="http://www.w3.org/2000/svg">
<path fill-rule="evenodd" clip-rule="evenodd" d="M70.9967 68.1316H5.89142C5.09517 68.1316 4.43955 68.7872 4.43955 69.5835V71.7737C4.43955 72.5699 5.09517 73.2255 5.89142 73.2255H70.9967C71.793 73.2255 72.4486 72.5699 72.4486 71.7737V69.5835C72.4486 68.7872 71.793 68.1316 70.9967 68.1316ZM50.2834 16.6965C51.6761 15.2688 53.7192 14.306 55.8609 14.306V14.3104C58.0389 14.2869 60.0211 15.1462 61.4656 16.5554C62.8933 17.948 63.8561 19.991 63.8561 22.1329H63.8517C63.8752 24.311 63.0158 26.293 61.6067 27.7376C60.2139 29.1654 58.1711 30.128 56.0292 30.128V30.1237C51.6667 30.1705 48.0927 26.6766 48.0384 22.3146C48.0114 20.1313 48.8714 18.144 50.2833 16.6966L50.2834 16.6965ZM55.8744 16.5743L55.8611 16.5746V16.5788C52.8181 16.5788 50.2638 19.1607 50.3025 22.2879C50.3413 25.4124 52.9303 27.9157 56.0294 27.8594V27.8552C59.0825 27.8552 61.6442 25.2476 61.5878 22.1329H61.5836C61.5836 19.0899 59.0016 16.5354 55.8744 16.5743ZM55.8328 39.3113L58.5461 39.2774L59.1014 36.3518C59.1605 35.9246 59.4616 35.5501 59.9017 35.419C60.67 35.1896 61.82 34.7372 62.4977 34.3435C62.8578 34.1191 63.3297 34.1071 63.7106 34.3515L66.333 36.0433L69.847 32.4408L68.1511 29.9501C67.91 29.6097 67.8664 29.1488 68.0773 28.7566C68.4616 28.0433 68.953 26.9272 69.1538 26.1629C69.2489 25.7449 69.5781 25.399 70.025 25.3043L73.0686 24.6479L73.0059 19.616L70.0803 19.0607C69.6531 19.0016 69.2786 18.7005 69.1475 18.2604C68.9181 17.4922 68.4658 16.3419 68.0722 15.6644C67.8478 15.3043 67.8358 14.8324 68.0802 14.4516L69.772 11.8291L66.1695 8.31506L63.6788 10.011C63.3384 10.2521 62.8775 10.2957 62.4853 10.0847C61.7716 9.70022 60.6563 9.20912 59.8914 9.00819C59.4734 8.91303 59.1277 8.58397 59.033 8.13709L58.3766 5.0935L53.3447 5.156L52.7894 8.08131C52.7303 8.5085 52.4292 8.88303 51.9891 9.01412C51.2208 9.2435 50.07 9.696 49.3925 10.0896C49.0323 10.3138 48.5605 10.326 48.1797 10.0816L45.5578 8.39022L42.0438 11.9927L43.74 14.4838C43.9811 14.8241 44.0247 15.2851 43.8138 15.6772C43.4291 16.391 42.9381 17.5062 42.7372 18.2708C42.642 18.6888 42.3128 19.0346 41.8661 19.1293L38.8224 19.7857L38.8805 24.4522H42.2692C44.0628 24.4522 45.6 25.8587 45.6 27.6508V31.3812H49.8434C51.5908 31.3812 53.1727 32.6718 53.1727 34.4151V37.731C54.0872 38.2151 54.9748 38.7427 55.8331 39.3113H55.8328ZM21.0264 39.3304L15.1228 28.7893C12.546 28.8829 10.01 28.3024 7.79173 27.1179C0.898921 23.4372 -1.29967 14.9838 2.51658 8.21272H2.52095C3.0408 7.29069 4.17783 7.00241 5.0622 7.49991L5.06408 7.49647C5.35158 7.6585 5.60189 7.89819 5.77892 8.21444L10.0625 15.8629L15.885 15.9391L18.8649 10.9302L14.5827 3.28459C13.8788 2.02709 14.808 0.449593 16.2811 0.503031C24.0636 0.785218 30.1133 7.08569 29.6509 14.8754C29.5022 17.3822 28.6714 19.8477 27.2435 21.9996L31.2883 29.2218V27.6507C31.2883 25.8583 32.8256 24.4521 34.6191 24.4521H36.6156L36.5464 18.8851C36.54 18.3358 36.9258 17.8733 37.4436 17.7641L37.4431 17.7619L40.7503 17.0487C40.9623 16.4251 41.2142 15.8121 41.4992 15.2226L39.6481 12.5043C39.3299 12.038 39.4069 11.4188 39.8039 11.0427L44.5816 6.14491C44.9639 5.75178 45.562 5.69553 46.0061 5.98115L46.0064 5.98069L48.8544 7.81803C49.4505 7.52272 50.0522 7.271 50.6766 7.05381L51.2891 3.82694C51.3941 3.26616 51.8953 2.87975 52.4492 2.90287L59.2769 2.81803C59.8261 2.81162 60.2886 3.19741 60.3978 3.71522L60.4 3.71475L61.1131 7.02147C61.7363 7.23319 62.3505 7.48569 62.9395 7.77037L65.6577 5.91959C66.1239 5.60131 66.7431 5.67834 67.1192 6.07537L72.0172 10.8529C72.4103 11.2352 72.4666 11.8333 72.1809 12.2774L72.1814 12.2777L70.3436 15.1263C70.6388 15.7222 70.8905 16.3237 71.1077 16.9479L74.335 17.5604C74.8958 17.6654 75.2822 18.1666 75.2591 18.7205L75.3441 25.5482C75.3505 26.0974 74.9647 26.5599 74.4469 26.6691L74.4473 26.6713L71.1405 27.3844C70.9286 28.0079 70.6764 28.6213 70.3916 29.2108L72.2423 31.929C72.5606 32.3952 72.4836 33.0144 72.0866 33.3905L67.3091 38.2885C66.9267 38.6816 66.3286 38.7379 65.8845 38.4522L65.8842 38.4527L63.0356 36.6149C62.4398 36.9101 61.8381 37.1618 61.2141 37.379L60.6016 40.6062C60.4966 41.1669 59.9953 41.5533 59.4414 41.5302L58.8017 41.5382C65.8072 47.4663 69.9786 56.1888 69.9786 65.6154C69.9786 65.6691 69.9777 65.7502 69.9759 65.8587H70.997C73.0478 65.8587 74.7216 67.5324 74.7216 69.5832V71.7733C74.7216 73.8241 73.0478 75.4979 70.997 75.4979H5.89142C3.84064 75.4979 2.16689 73.8241 2.16689 71.7733V69.5832C2.16689 67.5324 3.84064 65.8587 5.89142 65.8587H6.91251C6.91064 65.7502 6.90986 65.6691 6.90986 65.6154C6.90986 54.9133 12.2947 45.1269 21.0264 39.3302V39.3304ZM29.8967 31.3813L25.1449 22.8966C24.9702 22.5847 24.8914 22.2424 24.907 21.8994C24.9209 21.5954 25.0452 21.1535 25.2381 20.9215C26.5155 19.0655 27.2581 16.9216 27.3875 14.7422C27.7574 8.50928 23.123 3.39991 16.9206 2.81397L20.9574 10.0213C21.2836 10.6041 21.2753 11.3157 20.9344 11.8888L17.7202 17.2916H17.7158C17.3655 17.8802 16.7705 18.2149 16.0885 18.206L9.80236 18.1237C9.13095 18.1149 8.51892 17.7515 8.19361 17.1704L4.15814 9.9649C1.41283 15.5697 3.35908 22.1844 8.85689 25.1202C10.781 26.1477 12.9991 26.634 15.2549 26.5143C15.972 26.4762 16.6331 26.8416 16.9831 27.4665L22.9627 38.143C23.2117 38.0024 23.4627 37.8649 23.7158 37.7308V34.4149C23.7158 32.6718 25.2978 31.381 27.045 31.381H29.8966L29.8967 31.3813ZM31.2886 33.8666L31.1695 33.6541H27.0452C26.5408 33.6541 25.9886 33.9591 25.9886 34.4152V50.6229C25.9886 51.2504 25.4799 51.7593 24.8522 51.7593C24.2245 51.7593 23.7158 51.2505 23.7158 50.6229V40.3199C14.7959 45.5251 9.17814 55.0776 9.18251 65.6157V65.859H67.7053C67.7102 60.0619 66.2045 54.8591 63.3588 50.2537C60.8288 46.1594 57.3197 42.7399 53.1722 40.3199V50.6229C53.1722 51.2504 52.6634 51.7593 52.0358 51.7593C51.4081 51.7593 50.8994 51.2505 50.8994 50.6229V34.4152C50.8994 33.9591 50.3472 33.6541 49.8428 33.6541H45.5994V55.2544C45.5994 55.8819 45.0906 56.3908 44.463 56.3908C43.8353 56.3908 43.3266 55.8821 43.3266 55.2544V27.651C43.3266 27.1162 42.8211 26.7251 42.2684 26.7251H34.6189C34.0663 26.7251 33.5608 27.1162 33.5608 27.651V55.2544C33.5608 55.8819 33.052 56.3908 32.4244 56.3908C31.7967 56.3908 31.288 55.8821 31.288 55.2544V33.8666H31.2886Z" fill="#048AFA"/>
</svg>
