<svg width="33" height="32" viewBox="0 0 33 32" fill="none" xmlns="http://www.w3.org/2000/svg">
<path d="M16.6168 0C8.00092 0 0.991439 7.00948 0.991439 15.6252C0.991439 18.5682 1.80782 21.4162 3.35747 23.8949L0.820313 30.6749C0.685591 31.0351 0.773509 31.4407 1.04541 31.7126C1.23282 31.8999 1.48362 32 1.73943 32C1.85482 32 1.97119 31.9797 2.08315 31.9377L9.08537 29.3174C11.3837 30.5834 13.9772 31.2504 16.6167 31.2504C25.2325 31.2504 32.2419 24.241 32.2419 15.6252C32.242 7.00948 25.2326 0 16.6168 0ZM24.146 20.5319C23.7096 22.0835 22.0786 23.2095 20.2677 23.2094C20.0906 23.2094 19.9117 23.1984 19.7387 23.1769C17.5377 22.8605 14.9618 21.3504 12.8433 19.1322C10.6123 17.0015 9.10215 14.426 8.80356 12.2426C8.50134 10.0329 9.49012 8.38506 11.4483 7.83439C11.5488 7.80614 11.6552 7.79181 11.7644 7.79181C12.9115 7.79181 14.2778 9.41279 14.7524 10.5749C15.0615 11.3317 15.0381 11.9147 14.6847 12.2612C13.7981 13.1302 13.4676 13.6585 13.5058 14.1456C13.5486 14.6885 14.0539 15.3158 14.9124 16.2158C15.0219 16.3308 15.1685 16.4839 15.3331 16.6492C15.4869 16.8024 15.6343 16.9436 15.7646 17.0682C16.7229 17.9821 17.3488 18.4774 17.911 18.4774C18.3785 18.4773 18.8855 18.146 19.7189 17.2956C19.8452 17.1668 20.078 17.0135 20.4703 17.0135C21.5047 17.0135 22.9645 18.0229 23.6789 18.9658C24.1119 19.5371 24.2734 20.0787 24.146 20.5319Z" fill="#25D366"/>
</svg>
